<?xml version="1.0" encoding="utf-8"?>
<!-- Generator: Adobe Illustrator 27.5.0, SVG Export Plug-In . SVG Version: 6.00 Build 0)  -->
<svg version="1.1" id="Layer_1" xmlns="http://www.w3.org/2000/svg" xmlns:xlink="http://www.w3.org/1999/xlink" x="0px" y="0px"
	 width="220.6px" height="50.7px" viewBox="0 0 220.6 50.7" style="enable-background:new 0 0 220.6 50.7;" xml:space="preserve">
<style type="text/css">
	.st0{fill:#D31E52;}
	.st1{fill:#43474F;}
	.st2{fill:#EDECED;}
</style>
<g>
	<path class="st0" d="M29.7,49.1c-1.8,0-3.1,0.1-4.4-0.3c-1.2-0.3-2.4-0.6-3.6-1.1c-1.7-0.6-3.3-1.4-4.8-2.4
		c-1.4-0.9-2.7-1.9-4.4-2.4c-1.3-0.3-2.6-0.6-4-0.8c-0.4-0.1-0.5-0.1-0.4-0.5c0.3-1.3,0.3-2.7,0-4C8,36.9,8,36,7.9,35.2
		c-0.2-1.1-0.7-2.1-1-3.2C6.3,29.8,6,27.6,6,25.3c0-1.8,0.2-3.6,0.7-5.3c0.6-2.5,1.7-4.9,3-7.1c0.5-0.8,0.7-1.8,1.1-2.7
		C11.4,9,12.1,7.8,13,6.6c1.1-1.3,2.4-2.4,3.9-3.2c1.5-0.8,3.1-1.3,4.8-1.6c2.5-0.4,4.9-0.1,7.3,0.3c0.7,0.1,1.4,0.5,2.1,0.5
		c0.3,0,0.6,0.4,1,0.5c0.9,0.3,2,0.6,2.8,1.1c1.4,0.9,2.8,1.6,4.2,2.6c5.4,3.9,9.5,8.9,12,15.1c1.4,3.5,2.2,7.2,1.8,11
		c-0.3,3.3-1.5,6.2-3.7,8.8c-1.9,2.2-4.3,3.4-7,4.1c-1,0.3-2,0.8-2.9,1.2c-1.3,0.6-2.7,1.1-4.1,1.5C33.2,48.9,31.3,49.2,29.7,49.1z
		 M38.4,44.6c0.4,0,0.8,0,1.2,0c0.4,0,0.8-0.1,1.2-0.1c4.1-0.6,7.1-2.8,8.9-6.5c1.3-2.7,1.7-5.6,1.5-8.6c-0.2-2-0.6-4-1.3-5.9
		c-1.2-3.4-3-6.5-5.3-9.2c-2.9-3.5-6-6-9.9-8.1c-1.9-1-3.9-1.8-6-2.3c-2.3-0.5-4.6-0.8-7.1-0.5c-3.5,0.5-6.3,1.9-8.3,4.9
		c-1.5,2.2-2.2,4.6-2.4,7.2c-0.1,1.8,0,3.7,0.4,5.5c1.2,5.7,4,10.5,8,14.6c2,2,4.2,3.8,6.7,5.2C30.1,43.1,34,44.5,38.4,44.6z"/>
	<path class="st0" d="M147.5,22.9c0.2,0.2,0.2,0.4,0.2,0.6c0,0.9,0,1.9,0,2.8c0,0.4-0.2,0.6-0.6,0.6c-3.5,0-7,0-10.5,0
		c-0.9,0-0.9,0-0.9,0.9c0,1.4-0.1,2.9-0.1,4.3c0,0.7,0.2,0.9,0.8,0.9c3.9,0,7.8,0,11.7,0c0.8,0,0.8,0,0.8,0.8c0,1.1,0,2.2,0,3.3
		c0,0.4-0.1,0.5-0.5,0.5c-5.9,0-11.8,0-17.7,0c-0.4,0-0.5-0.1-0.5-0.5c0-7.8,0-15.7,0-23.5c0-0.6,0.1-0.8,0.7-0.8
		c5.7,0,11.4,0,17.1,0c0.6,0,0.8,0.1,0.7,0.7c0,1,0,2.1,0,3.1c0,0.5-0.1,0.6-0.6,0.6c-3.8,0-7.7,0-11.5,0c-0.9,0-0.9,0-0.9,0.9
		c0,1.3,0,2.7,0,4c0,0.6,0.1,0.7,0.8,0.6c0.2-0.1,0.4-0.1,0.6-0.1c3,0,6,0,9.1,0C146.5,22.8,147,22.8,147.5,22.9
		C147.5,22.9,147.5,22.9,147.5,22.9z"/>
	<path class="st0" d="M126.9,13c-3.2,3.2-6.2,6.3-9.3,9.4c-0.3,0.3-0.3,0.9,0,1.1c0.2,0.1,0.4,0.3,0.5,0.5c1.4,1.9,2.7,3.8,4.1,5.8
		c0.7,1,1.3,2,2,2.9c1.2,1.7,2.4,3.3,3.7,5.1c-0.4,0-0.7,0-1,0c-1.6,0-3.3,0-4.9,0c-0.5,0-0.9-0.2-1.2-0.6c-2.2-3.3-4.4-6.6-6.7-9.9
		c-0.4-0.6-0.5-0.6-1-0.1c-0.8,0.8-1.6,1.6-2.4,2.4c-0.3,0.3-0.2,0.6-0.2,0.8c-0.3,0.7,0.2,1.3,0.1,2c-0.1,0.7,0,1.4,0,2.1
		c0,0.9,0,1.9,0,2.8c0,0.4-0.1,0.6-0.5,0.6c-1.4,0-2.9,0-4.3,0c-0.3,0-0.6,0-0.5-0.4c0.1-1.1-0.2-2.1-0.1-3.2c0.1-1,0-2,0.1-3
		c0.1-2.4,0-4.8,0-7.2c0-3.5,0-7,0-10.5c0-0.4,0.1-0.6,0.5-0.5c1.4,0.2,2.9,0.1,4.3,0.1c0.5,0,0.6,0.1,0.6,0.6c0,3,0,6,0,9.1
		c0,0.2-0.1,0.4,0.1,0.5c0.2,0.1,0.3-0.1,0.4-0.2c2.9-3.1,5.8-6.1,8.7-9.3c0.5-0.5,1.1-0.6,1.6-0.6C123.1,12.9,125,13,126.9,13z"/>
	<path class="st1" d="M162,37.7c-2.8,0-5.6,0-8.4,0c-0.9,0-1-0.1-1-1c0.2-3.3,0-6.6,0.1-9.8c0-4.4,0-8.8,0-13.2
		c0-0.6,0.2-0.7,0.7-0.7c5,0,9.9,0,14.9,0c0.9,0,1.7,0.1,2.6,0.1c0.3,0,0.4,0.1,0.4,0.3c0,1.2,0,2.4,0,3.6c0,0.5-0.3,0.5-0.6,0.5
		c-3.9,0-7.7,0-11.6,0c-0.6,0-0.9,0.1-0.8,0.8c0.1,1.3,0,2.6,0,3.9c0,0.5,0.1,0.6,0.6,0.6c3.6,0,7.1,0,10.7,0c0.5,0,0.7,0.1,0.7,0.7
		c-0.1,0.9,0,1.9,0,2.8c0,0.5-0.1,0.6-0.6,0.6c-3.5,0-7,0-10.4,0c-0.3,0-0.7-0.1-1,0.1c-0.3,0.3,0,0.6,0,0.9c0,1.5,0,3,0,4.4
		c0,0.6,0.2,0.7,0.7,0.7c4,0,7.9,0,11.9,0c0.8,0,0.8,0,0.8,0.8c0,1,0,2,0,3c0,0.8,0,0.8-0.8,0.8C167.7,37.7,164.8,37.7,162,37.7z"/>
	<path class="st1" d="M193.8,37.7c-0.6,0-1.2,0-1.9,0c-1,0-1.1-0.1-1.2-1c-0.2-1.1-0.6-2.1-1-3.1c-0.1-0.3-0.2-0.7-0.3-1
		c-0.1-0.3-0.3-0.4-0.6-0.4c-2.8,0-5.6,0-8.4,0c-0.3,0-0.5,0.1-0.6,0.4c-0.5,1.6-1.1,3.1-1.6,4.7c-0.1,0.4-0.4,0.6-0.8,0.6
		c-1.4,0-2.8,0-4.2,0c-0.6,0-0.6-0.2-0.4-0.6c0.5-1.2,0.9-2.5,1.4-3.7c0.8-2,1.6-3.9,2.3-5.9c1.8-4.7,3.6-9.4,5.3-14.1
		c0.1-0.4,0.3-0.5,0.7-0.5c1.5,0,3,0,4.5,0c0.4,0,0.5,0.1,0.7,0.5c2,5.5,4.1,11,6.1,16.4c0.9,2.5,1.9,5,2.8,7.5
		c0.1,0.3-0.2,0.3-0.3,0.3C195.4,37.7,194.6,37.7,193.8,37.7z M184.7,28.1c0.9,0,1.5,0,2.2,0c0.8,0,0.9,0,0.6-0.8
		c-0.8-2.4-1.6-4.7-2.4-7.1c-0.1-0.3-0.2-0.6-0.3-0.9c0-0.1-0.1-0.2-0.2-0.2c-0.1,0-0.2,0.1-0.2,0.2c-1,2.8-2,5.6-3,8.4
		c-0.2,0.6,0,0.7,0.6,0.6C183,28,184,28.2,184.7,28.1z"/>
	<path class="st1" d="M204.5,13c3.1,0,6.3,0,9.4,0c0.6,0,0.7,0.1,0.7,0.7c0,1,0,2.1,0,3.1c0,0.5-0.1,0.7-0.6,0.7c-2,0-4,0-6.1,0
		c-0.5,0-0.7,0.1-0.7,0.6c-0.1,5,0,10,0,15.1c0,1.3,0,2.7,0,4c0,0.5-0.2,0.6-0.6,0.6c-1.4,0-2.8,0-4.2,0c-0.5,0-0.6-0.2-0.6-0.6
		c0-5.4,0-10.8,0-16.2c0-0.9,0-1.9,0-2.8c0-0.4-0.1-0.6-0.6-0.6c-2.1,0-4.2,0-6.2,0c-0.5,0-0.7-0.1-0.6-0.6c0-1.1,0-2.2,0-3.3
		c0-0.4,0.1-0.6,0.6-0.6C198.1,13,201.3,13,204.5,13C204.5,13,204.5,13,204.5,13z"/>
	<path class="st0" d="M74.4,25.3c0-3.9,0-7.8,0-11.7c0-0.5,0.2-0.6,0.6-0.6c1.4,0,2.7,0,4.1,0c0.6,0,0.7,0.2,0.7,0.8
		c0,6.2,0,12.5,0,18.7c0,0.5,0.1,0.6,0.6,0.6c3.5,0,7.1,0,10.6,0c0.9,0,0.9,0,0.9,0.8c0,1.1,0,2.2,0,3.2c0,0.3,0,0.5-0.5,0.5
		c-3.3,0-6.6,0-9.9,0c-2.2,0-4.3,0-6.5,0c-0.5,0-0.6-0.2-0.6-0.7C74.4,33.2,74.4,29.2,74.4,25.3z"/>
	<path class="st0" d="M100.4,25.4c0,3.9,0,7.8,0,11.7c0,0.5-0.1,0.6-0.6,0.6c-1.5,0-2.9,0-4.4,0c-0.5,0-0.6-0.1-0.6-0.6
		c0-7.4,0-14.8,0-22.2c0-0.3,0-0.6-0.1-0.8C94.6,13.5,95,13,95.6,13c1.4,0,2.8,0,4.2,0c0.5,0,0.6,0.1,0.6,0.6
		C100.4,17.5,100.4,21.5,100.4,25.4z"/>
	<path class="st1" d="M69.6,25.4c0,3.9,0,7.7,0,11.6c0,0.8,0,0.7-0.8,0.7c-1.2-0.1-2.4,0-3.6,0c-1.1,0-1,0.1-1-1c0-7.7,0-15.3,0-23
		c0-0.8,0-0.8,0.8-0.8c1.3,0,2.6,0,3.9,0c0.6,0,0.8,0.1,0.7,0.7C69.5,17.6,69.6,21.5,69.6,25.4C69.6,25.4,69.6,25.4,69.6,25.4z"/>
	<path class="st0" d="M147.5,22.9C147.5,22.9,147.5,22.9,147.5,22.9c0,0,0-0.1,0-0.1C147.5,22.9,147.5,22.9,147.5,22.9z"/>
	<path class="st2" d="M38.4,44.6c-4.4-0.1-8.3-1.4-12.1-3.6c-2.5-1.4-4.7-3.2-6.7-5.2c-4-4.1-6.8-9-8-14.6c-0.4-1.8-0.6-3.7-0.4-5.5
		c0.2-2.6,0.9-5,2.4-7.2c2-3,4.8-4.4,8.3-4.9c2.4-0.4,4.7-0.1,7.1,0.5c2.1,0.5,4.1,1.3,6,2.3c3.9,2,7,4.6,9.9,8.1
		c2.3,2.8,4.1,5.8,5.3,9.2c0.7,1.9,1.1,3.9,1.3,5.9c0.3,3-0.1,5.9-1.5,8.6c-1.8,3.7-4.9,5.9-8.9,6.5c-0.4,0.1-0.8,0.1-1.2,0.1
		C39.3,44.6,38.8,44.6,38.4,44.6z M30.1,21.7c0.1,0,0.2,0.1,0.3-0.1c0.1-0.1,0-0.2-0.1-0.3c-0.9-0.9-1.6-1.9-2.4-2.8
		c-3.1-3.8-6.2-7.5-9.2-11.3c-0.2-0.3-0.4-0.1-0.5,0c-0.9,0.7-1.7,1.4-2.3,2.3c-2,2.8-2.5,5.9-2.3,9.2c0,0.4,0.2,0.6,0.6,0.6
		c1.3,0.2,2.6,0.4,3.9,0.6c3,0.5,5.9,0.9,8.9,1.4C28,21.4,29.1,21.5,30.1,21.7z M37.8,42.6c2,0.1,3.8-0.3,5.5-1
		c0.7-0.3,1.2-0.8,1.9-1.1c0.3-0.1,0.3-0.4,0.1-0.7c-1.4-1.7-2.8-3.4-4.2-5.1c-2.3-2.8-4.6-5.6-6.9-8.4c-0.1-0.2-0.2-0.5-0.5-0.4
		c-0.3,0.1-0.2,0.4-0.2,0.7c0,1.5-0.2,3.1-0.2,4.6c-0.1,1.9-0.2,3.7-0.3,5.6c-0.1,1.6-0.1,3.2-0.3,4.7c0,0.4,0.1,0.6,0.4,0.6
		C34.8,42.2,36.3,42.7,37.8,42.6z M49.5,30.6c0.1-1-0.2-2-0.3-3.1c-0.1-0.9-0.3-1-1.2-1.2c-2.1-0.3-4.2-0.6-6.2-0.9
		c-1.9-0.3-3.9-0.5-5.8-0.9c-0.1,0-0.3,0-0.4,0c-0.1,0.1,0,0.3,0.1,0.4c0.2,0.3,0.5,0.5,0.7,0.8c1.6,1.9,3.1,3.8,4.7,5.8
		c1.8,2.1,3.5,4.3,5.3,6.4c0.6,0.8,0.8,0.8,1.3-0.1C48.9,35.6,49.6,33.3,49.5,30.6z M32,20.2c0-0.1,0.1-0.1,0-0.2
		c-0.1-1.7,0.1-3.4,0.2-5.2c0-1,0.1-1.9,0.1-2.9c0.1-1.5,0.2-2.9,0.2-4.4c0-0.4-0.2-0.5-0.5-0.7c-2.7-1.2-5.6-1.6-8.5-1.4
		c-0.9,0.1-1.8,0.3-2.7,0.5c-0.4,0.1-0.5,0.3-0.2,0.6c0.4,0.4,0.7,0.8,1.1,1.3c3.2,4,6.6,8,9.8,12.1C31.6,20,31.7,20.2,32,20.2z
		 M31.7,25.8c0-0.1,0-0.2,0-0.3c0-0.2,0.2-0.3,0-0.4c-0.2-0.1-0.3,0.1-0.4,0.2c-1,0.6-1.8,1.4-2.7,2.1c-1.3,1-2.5,2.2-3.9,3.3
		c-1.2,1-2.4,2-3.5,3c-0.3,0.3-0.3,0.4,0,0.7c2.2,1.9,4.2,3.9,6.8,5.3c0.8,0.4,1.6,0.9,2.4,1.4c0.3,0.2,0.5,0.1,0.5-0.2
		c0-0.2,0.1-0.5,0.1-0.7c0-1.4,0-2.8,0.2-4.2c0.2-1.7,0.1-3.3,0.2-5C31.5,29.2,31.5,27.5,31.7,25.8z M14.4,21.2
		c-0.3,0-0.5,0-0.3,0.4c0.3,0.9,0.6,1.9,0.9,2.8c1,2.7,2.5,5.1,4.2,7.4c0.4,0.5,0.6,0.4,0.9,0.1c0.4-0.4,0.9-0.8,1.4-1.1
		c2.1-1.7,4.1-3.4,6.2-5c0.7-0.6,1.4-1.1,2.1-1.7c0.1-0.1,0.2-0.2,0.2-0.3c-0.1-0.2-0.2-0.1-0.3-0.1c-0.3,0.1-0.6-0.1-0.9-0.1
		c-2.3-0.3-4.5-0.7-6.8-1.1C19.4,22,16.9,21.6,14.4,21.2z M48.4,24.2c0-0.1-0.1-0.2-0.1-0.3c-1-2.6-2.3-5.1-4-7.3
		c-1.1-1.4-0.7-1.6-2.3-0.3c-2.2,1.9-4.4,3.8-6.7,5.6c-0.1,0.1-0.4,0.2-0.4,0.4c0,0.3,0.3,0.2,0.5,0.2c1.8,0.2,3.6,0.5,5.4,0.8
		c2.4,0.4,4.9,0.7,7.3,1.2C48.2,24.5,48.4,24.5,48.4,24.2z M33.9,19.8c0,0.2-0.1,0.5,0.1,0.6c0.3,0.1,0.4-0.2,0.6-0.3
		c2.2-1.9,4.5-3.8,6.7-5.6c0.7-0.6,0.7-0.6,0-1.3c-1.9-1.9-3.9-3.5-6.2-4.8c-0.5-0.3-0.6-0.2-0.7,0.3c-0.2,1-0.1,2-0.2,3
		C34.2,14.3,34.1,17,33.9,19.8z"/>
	<path class="st0" d="M30.1,21.7c-1.1-0.2-2.1-0.3-3.1-0.5c-3-0.5-5.9-0.9-8.9-1.4c-1.3-0.2-2.6-0.4-3.9-0.6
		c-0.4-0.1-0.6-0.3-0.6-0.6c-0.1-3.3,0.4-6.4,2.3-9.2c0.6-0.9,1.4-1.6,2.3-2.3c0.1-0.1,0.3-0.2,0.5,0c3.1,3.8,6.2,7.5,9.2,11.3
		c0.8,0.9,1.5,1.9,2.4,2.8c0.1,0.1,0.2,0.2,0.1,0.3C30.3,21.8,30.2,21.7,30.1,21.7z"/>
	<path class="st0" d="M37.8,42.6c-1.5,0.1-3-0.4-4.6-0.6c-0.4-0.1-0.5-0.3-0.4-0.6c0.2-1.6,0.2-3.1,0.3-4.7c0.1-1.9,0.2-3.7,0.3-5.6
		c0.1-1.5,0.2-3.1,0.2-4.6c0-0.2,0-0.6,0.2-0.7c0.2-0.1,0.3,0.3,0.5,0.4c2.3,2.8,4.6,5.6,6.9,8.4c1.4,1.7,2.8,3.4,4.2,5.1
		c0.2,0.3,0.3,0.6-0.1,0.7c-0.7,0.3-1.2,0.8-1.9,1.1C41.6,42.3,39.8,42.7,37.8,42.6z"/>
	<path class="st0" d="M49.5,30.6c0,2.7-0.6,5-1.9,7.2c-0.5,0.9-0.7,0.9-1.3,0.1c-1.7-2.2-3.5-4.3-5.3-6.4c-1.6-1.9-3.1-3.8-4.7-5.8
		c-0.2-0.3-0.5-0.5-0.7-0.8c-0.1-0.1-0.2-0.2-0.1-0.4c0.1-0.1,0.2-0.1,0.4,0c1.9,0.4,3.9,0.6,5.8,0.9c2.1,0.3,4.1,0.6,6.2,0.9
		c0.9,0.1,1.2,0.3,1.2,1.2C49.3,28.6,49.6,29.7,49.5,30.6z"/>
	<path class="st0" d="M32,20.2c-0.3,0-0.3-0.2-0.5-0.3c-3.2-4.1-6.5-8-9.8-12.1c-0.4-0.4-0.7-0.9-1.1-1.3c-0.3-0.3-0.2-0.5,0.2-0.6
		c0.9-0.3,1.8-0.5,2.7-0.5c3-0.2,5.8,0.3,8.5,1.4c0.3,0.1,0.5,0.3,0.5,0.7c0,1.5-0.1,2.9-0.2,4.4c-0.1,1-0.1,1.9-0.1,2.9
		c0,1.7-0.2,3.4-0.2,5.2C32,20,32,20.1,32,20.2z"/>
	<path class="st0" d="M31.7,25.8c-0.1,1.7-0.2,3.4-0.3,5.2c-0.1,1.7,0,3.3-0.2,5C31,37.3,31,38.7,31,40.1c0,0.2-0.1,0.5-0.1,0.7
		c-0.1,0.4-0.2,0.4-0.5,0.2c-0.8-0.5-1.6-1-2.4-1.4c-2.6-1.4-4.6-3.5-6.8-5.3c-0.3-0.2-0.3-0.4,0-0.7c1.2-1,2.3-2.1,3.5-3
		c1.3-1.1,2.5-2.3,3.9-3.3c0.9-0.7,1.7-1.5,2.7-2.1c0.1-0.1,0.2-0.3,0.4-0.2c0.2,0.1-0.1,0.3,0,0.4C31.7,25.5,31.7,25.6,31.7,25.8z"
		/>
	<path class="st0" d="M14.4,21.2c2.5,0.4,5,0.8,7.4,1.1c2.3,0.4,4.5,0.7,6.8,1.1c0.3,0,0.6,0.2,0.9,0.1c0.1,0,0.3-0.1,0.3,0.1
		c0,0.1-0.1,0.2-0.2,0.3c-0.7,0.6-1.4,1.1-2.1,1.7c-2.1,1.7-4.1,3.4-6.2,5c-0.5,0.4-1,0.7-1.4,1.1c-0.3,0.3-0.6,0.4-0.9-0.1
		c-1.7-2.3-3.2-4.7-4.2-7.4c-0.3-0.9-0.6-1.9-0.9-2.8C14,21.2,14.1,21.2,14.4,21.2z"/>
	<path class="st0" d="M48.4,24.2c0,0.3-0.2,0.2-0.3,0.2c-2.4-0.5-4.9-0.8-7.3-1.2c-1.8-0.3-3.6-0.6-5.4-0.8c-0.2,0-0.5,0.1-0.5-0.2
		c0-0.2,0.2-0.3,0.4-0.4c2.3-1.8,4.5-3.7,6.7-5.6c1.6-1.3,1.2-1.1,2.3,0.3c1.7,2.2,3,4.7,4,7.3C48.3,24,48.4,24.2,48.4,24.2z"/>
	<path class="st0" d="M33.9,19.8c0.2-2.7,0.2-5.4,0.4-8.1c0.1-1,0-2,0.2-3c0.1-0.5,0.2-0.6,0.7-0.3c2.2,1.4,4.3,3,6.2,4.8
		c0.7,0.7,0.7,0.7,0,1.3c-2.2,1.8-4.5,3.7-6.7,5.6c-0.2,0.2-0.3,0.5-0.6,0.3C33.8,20.2,34,19.9,33.9,19.8z"/>
</g>
</svg>
