<?xml version="1.0" encoding="utf-8"?>
<!-- Generator: Adobe Illustrator 27.5.0, SVG Export Plug-In . SVG Version: 6.00 Build 0)  -->
<svg version="1.1" id="Layer_1" xmlns="http://www.w3.org/2000/svg" xmlns:xlink="http://www.w3.org/1999/xlink" x="0px" y="0px"
	 width="220.6px" height="57.6px" viewBox="0 0 220.6 57.6" style="enable-background:new 0 0 220.6 57.6;" xml:space="preserve">
<style type="text/css">
	.st0{fill:#EB5172;}
	.st1{fill:#43474F;}
	.st2{fill:#EDECED;}
</style>
<g>
	<path class="st0" d="M29.7,52.5c-1.8,0-3.1,0.1-4.4-0.3c-1.2-0.3-2.4-0.6-3.6-1.1c-1.7-0.6-3.3-1.4-4.8-2.4
		c-1.4-0.9-2.7-1.9-4.4-2.4c-1.3-0.3-2.6-0.6-4-0.8c-0.4-0.1-0.5-0.1-0.4-0.5c0.3-1.3,0.3-2.7,0-4C8,40.3,8,39.5,7.9,38.6
		c-0.2-1.1-0.7-2.1-1-3.2C6.3,33.2,6,31,6,28.8c0-1.8,0.2-3.6,0.7-5.3c0.6-2.5,1.7-4.9,3-7.1c0.5-0.8,0.7-1.8,1.1-2.7
		c0.6-1.3,1.3-2.5,2.2-3.7c1.1-1.3,2.4-2.4,3.9-3.2c1.5-0.8,3.1-1.3,4.8-1.6c2.5-0.4,4.9-0.1,7.3,0.3c0.7,0.1,1.4,0.5,2.1,0.5
		c0.3,0,0.6,0.4,1,0.5c0.9,0.3,2,0.6,2.8,1.1c1.4,0.9,2.8,1.6,4.2,2.6c5.4,3.9,9.5,8.9,12,15.1c1.4,3.5,2.2,7.2,1.8,11
		c-0.3,3.3-1.5,6.2-3.7,8.8c-1.9,2.2-4.3,3.4-7,4.1c-1,0.3-2,0.8-2.9,1.2c-1.3,0.6-2.7,1.1-4.1,1.5C33.2,52.3,31.3,52.7,29.7,52.5z
		 M38.4,48c0.4,0,0.8,0,1.2,0c0.4,0,0.8-0.1,1.2-0.1c4.1-0.6,7.1-2.8,8.9-6.5c1.3-2.7,1.7-5.6,1.5-8.6c-0.2-2-0.6-4-1.3-5.9
		c-1.2-3.4-3-6.5-5.3-9.2c-2.9-3.5-6-6-9.9-8.1c-1.9-1-3.9-1.8-6-2.3c-2.3-0.5-4.6-0.8-7.1-0.5c-3.5,0.5-6.3,1.9-8.3,4.9
		c-1.5,2.2-2.2,4.6-2.4,7.2c-0.1,1.8,0,3.7,0.4,5.5c1.2,5.7,4,10.5,8,14.6c2,2,4.2,3.8,6.7,5.2C30.1,46.6,34,48,38.4,48z"/>
	<path class="st0" d="M147.5,26.4c0.2,0.2,0.2,0.4,0.2,0.6c0,0.9,0,1.9,0,2.8c0,0.4-0.2,0.6-0.6,0.6c-3.5,0-7,0-10.5,0
		c-0.9,0-0.9,0-0.9,0.9c0,1.4-0.1,2.9-0.1,4.3c0,0.7,0.2,0.9,0.8,0.9c3.9,0,7.8,0,11.7,0c0.8,0,0.8,0,0.8,0.8c0,1.1,0,2.2,0,3.3
		c0,0.4-0.1,0.5-0.5,0.5c-5.9,0-11.8,0-17.7,0c-0.4,0-0.5-0.1-0.5-0.5c0-7.8,0-15.7,0-23.5c0-0.6,0.1-0.8,0.7-0.8
		c5.7,0,11.4,0,17.1,0c0.6,0,0.8,0.1,0.7,0.7c0,1,0,2.1,0,3.1c0,0.5-0.1,0.6-0.6,0.6c-3.8,0-7.7,0-11.5,0c-0.9,0-0.9,0-0.9,0.9
		c0,1.3,0,2.7,0,4c0,0.6,0.1,0.7,0.8,0.6c0.2-0.1,0.4-0.1,0.6-0.1c3,0,6,0,9.1,0C146.5,26.3,147,26.2,147.5,26.4
		C147.5,26.4,147.5,26.4,147.5,26.4z"/>
	<path class="st0" d="M126.9,16.4c-3.2,3.2-6.2,6.3-9.3,9.4c-0.3,0.3-0.3,0.9,0,1.1c0.2,0.1,0.4,0.3,0.5,0.5
		c1.4,1.9,2.7,3.8,4.1,5.8c0.7,1,1.3,2,2,2.9c1.2,1.7,2.4,3.3,3.7,5.1c-0.4,0-0.7,0-1,0c-1.6,0-3.3,0-4.9,0c-0.5,0-0.9-0.2-1.2-0.6
		c-2.2-3.3-4.4-6.6-6.7-9.9c-0.4-0.6-0.5-0.6-1-0.1c-0.8,0.8-1.6,1.6-2.4,2.4c-0.3,0.3-0.2,0.6-0.2,0.8c-0.3,0.7,0.2,1.3,0.1,2
		c-0.1,0.7,0,1.4,0,2.1c0,0.9,0,1.9,0,2.8c0,0.4-0.1,0.6-0.5,0.6c-1.4,0-2.9,0-4.3,0c-0.3,0-0.6,0-0.5-0.4c0.1-1.1-0.2-2.1-0.1-3.2
		c0.1-1,0-2,0.1-3c0.1-2.4,0-4.8,0-7.2c0-3.5,0-7,0-10.5c0-0.4,0.1-0.6,0.5-0.5c1.4,0.2,2.9,0.1,4.3,0.1c0.5,0,0.6,0.1,0.6,0.6
		c0,3,0,6,0,9.1c0,0.2-0.1,0.4,0.1,0.5c0.2,0.1,0.3-0.1,0.4-0.2c2.9-3.1,5.8-6.1,8.7-9.3c0.5-0.5,1.1-0.6,1.6-0.6
		C123.1,16.4,125,16.4,126.9,16.4z"/>
	<path class="st1" d="M162,41.1c-2.8,0-5.6,0-8.4,0c-0.9,0-1-0.1-1-1c0.2-3.3,0-6.6,0.1-9.8c0-4.4,0-8.8,0-13.2
		c0-0.6,0.2-0.7,0.7-0.7c5,0,9.9,0,14.9,0c0.9,0,1.7,0.1,2.6,0.1c0.3,0,0.4,0.1,0.4,0.3c0,1.2,0,2.4,0,3.6c0,0.5-0.3,0.5-0.6,0.5
		c-3.9,0-7.7,0-11.6,0c-0.6,0-0.9,0.1-0.8,0.8c0.1,1.3,0,2.6,0,3.9c0,0.5,0.1,0.6,0.6,0.6c3.6,0,7.1,0,10.7,0c0.5,0,0.7,0.1,0.7,0.7
		c-0.1,0.9,0,1.9,0,2.8c0,0.5-0.1,0.6-0.6,0.6c-3.5,0-7,0-10.4,0c-0.3,0-0.7-0.1-1,0.1c-0.3,0.3,0,0.6,0,0.9c0,1.5,0,3,0,4.4
		c0,0.6,0.2,0.7,0.7,0.7c4,0,7.9,0,11.9,0c0.8,0,0.8,0,0.8,0.8c0,1,0,2,0,3c0,0.8,0,0.8-0.8,0.8C167.7,41.1,164.8,41.1,162,41.1z"/>
	<path class="st1" d="M193.8,41.1c-0.6,0-1.2,0-1.9,0c-1,0-1.1-0.1-1.2-1c-0.2-1.1-0.6-2.1-1-3.1c-0.1-0.3-0.2-0.7-0.3-1
		c-0.1-0.3-0.3-0.4-0.6-0.4c-2.8,0-5.6,0-8.4,0c-0.3,0-0.5,0.1-0.6,0.4c-0.5,1.6-1.1,3.1-1.6,4.7c-0.1,0.4-0.4,0.6-0.8,0.6
		c-1.4,0-2.8,0-4.2,0c-0.6,0-0.6-0.2-0.4-0.6c0.5-1.2,0.9-2.5,1.4-3.7c0.8-2,1.6-3.9,2.3-5.9c1.8-4.7,3.6-9.4,5.3-14.1
		c0.1-0.4,0.3-0.5,0.7-0.5c1.5,0,3,0,4.5,0c0.4,0,0.5,0.1,0.7,0.5c2,5.5,4.1,11,6.1,16.4c0.9,2.5,1.9,5,2.8,7.5
		c0.1,0.3-0.2,0.3-0.3,0.3C195.4,41.1,194.6,41.1,193.8,41.1z M184.7,31.5c0.9,0,1.5,0,2.2,0c0.8,0,0.9,0,0.6-0.8
		c-0.8-2.4-1.6-4.7-2.4-7.1c-0.1-0.3-0.2-0.6-0.3-0.9c0-0.1-0.1-0.2-0.2-0.2c-0.1,0-0.2,0.1-0.2,0.2c-1,2.8-2,5.6-3,8.4
		c-0.2,0.6,0,0.7,0.6,0.6C183,31.4,184,31.6,184.7,31.5z"/>
	<path class="st1" d="M204.5,16.4c3.1,0,6.3,0,9.4,0c0.6,0,0.7,0.1,0.7,0.7c0,1,0,2.1,0,3.1c0,0.5-0.1,0.7-0.6,0.7c-2,0-4,0-6.1,0
		c-0.5,0-0.7,0.1-0.7,0.6c-0.1,5,0,10,0,15.1c0,1.3,0,2.7,0,4c0,0.5-0.2,0.6-0.6,0.6c-1.4,0-2.8,0-4.2,0c-0.5,0-0.6-0.2-0.6-0.6
		c0-5.4,0-10.8,0-16.2c0-0.9,0-1.9,0-2.8c0-0.4-0.1-0.6-0.6-0.6c-2.1,0-4.2,0-6.2,0c-0.5,0-0.7-0.1-0.6-0.6c0-1.1,0-2.2,0-3.3
		c0-0.4,0.1-0.6,0.6-0.6C198.1,16.4,201.3,16.4,204.5,16.4C204.5,16.4,204.5,16.4,204.5,16.4z"/>
	<path class="st0" d="M74.4,28.8c0-3.9,0-7.8,0-11.7c0-0.5,0.2-0.6,0.6-0.6c1.4,0,2.7,0,4.1,0c0.6,0,0.7,0.2,0.7,0.8
		c0,6.2,0,12.5,0,18.7c0,0.5,0.1,0.6,0.6,0.6c3.5,0,7.1,0,10.6,0c0.9,0,0.9,0,0.9,0.8c0,1.1,0,2.2,0,3.2c0,0.3,0,0.5-0.5,0.5
		c-3.3,0-6.6,0-9.9,0c-2.2,0-4.3,0-6.5,0c-0.5,0-0.6-0.2-0.6-0.7C74.4,36.6,74.4,32.7,74.4,28.8z"/>
	<path class="st0" d="M100.4,28.8c0,3.9,0,7.8,0,11.7c0,0.5-0.1,0.6-0.6,0.6c-1.5,0-2.9,0-4.4,0c-0.5,0-0.6-0.1-0.6-0.6
		c0-7.4,0-14.8,0-22.2c0-0.3,0-0.6-0.1-0.8c-0.2-0.6,0.2-1.1,0.8-1.1c1.4,0,2.8,0,4.2,0c0.5,0,0.6,0.1,0.6,0.6
		C100.4,21,100.4,24.9,100.4,28.8z"/>
	<path class="st1" d="M69.6,28.8c0,3.9,0,7.7,0,11.6c0,0.8,0,0.7-0.8,0.7c-1.2-0.1-2.4,0-3.6,0c-1.1,0-1,0.1-1-1c0-7.7,0-15.3,0-23
		c0-0.8,0-0.8,0.8-0.8c1.3,0,2.6,0,3.9,0c0.6,0,0.8,0.1,0.7,0.7C69.5,21,69.6,24.9,69.6,28.8C69.6,28.8,69.6,28.8,69.6,28.8z"/>
	<path class="st0" d="M147.5,26.4C147.5,26.4,147.5,26.4,147.5,26.4c0,0,0-0.1,0-0.1C147.5,26.3,147.5,26.3,147.5,26.4z"/>
	<path class="st2" d="M38.4,48c-4.4-0.1-8.3-1.4-12.1-3.6c-2.5-1.4-4.7-3.2-6.7-5.2c-4-4.1-6.8-9-8-14.6c-0.4-1.8-0.6-3.7-0.4-5.5
		c0.2-2.6,0.9-5,2.4-7.2c2-3,4.8-4.4,8.3-4.9c2.4-0.4,4.7-0.1,7.1,0.5c2.1,0.5,4.1,1.3,6,2.3c3.9,2,7,4.6,9.9,8.1
		c2.3,2.8,4.1,5.8,5.3,9.2c0.7,1.9,1.1,3.9,1.3,5.9c0.3,3-0.1,5.9-1.5,8.6c-1.8,3.7-4.9,5.9-8.9,6.5C40.5,48,40.1,48,39.7,48
		C39.3,48,38.8,48,38.4,48z M30.1,25.1c0.1,0,0.2,0.1,0.3-0.1c0.1-0.1,0-0.2-0.1-0.3c-0.9-0.9-1.6-1.9-2.4-2.8
		c-3.1-3.8-6.2-7.5-9.2-11.3c-0.2-0.3-0.4-0.1-0.5,0c-0.9,0.7-1.7,1.4-2.3,2.3c-2,2.8-2.5,5.9-2.3,9.2c0,0.4,0.2,0.6,0.6,0.6
		c1.3,0.2,2.6,0.4,3.9,0.6c3,0.5,5.9,0.9,8.9,1.4C28,24.8,29.1,25,30.1,25.1z M37.8,46c2,0.1,3.8-0.3,5.5-1c0.7-0.3,1.2-0.8,1.9-1.1
		c0.3-0.1,0.3-0.4,0.1-0.7c-1.4-1.7-2.8-3.4-4.2-5.1c-2.3-2.8-4.6-5.6-6.9-8.4c-0.1-0.2-0.2-0.5-0.5-0.4c-0.3,0.1-0.2,0.4-0.2,0.7
		c0,1.5-0.2,3.1-0.2,4.6c-0.1,1.9-0.2,3.7-0.3,5.6c-0.1,1.6-0.1,3.2-0.3,4.7c0,0.4,0.1,0.6,0.4,0.6C34.8,45.6,36.3,46.2,37.8,46z
		 M49.5,34.1c0.1-1-0.2-2-0.3-3.1c-0.1-0.9-0.3-1-1.2-1.2c-2.1-0.3-4.2-0.6-6.2-0.9c-1.9-0.3-3.9-0.5-5.8-0.9c-0.1,0-0.3,0-0.4,0
		c-0.1,0.1,0,0.3,0.1,0.4c0.2,0.3,0.5,0.5,0.7,0.8c1.6,1.9,3.1,3.8,4.7,5.8c1.8,2.1,3.5,4.3,5.3,6.4c0.6,0.8,0.8,0.8,1.3-0.1
		C48.9,39.1,49.6,36.7,49.5,34.1z M32,23.6c0-0.1,0.1-0.1,0-0.2c-0.1-1.7,0.1-3.4,0.2-5.2c0-1,0.1-1.9,0.1-2.9
		c0.1-1.5,0.2-2.9,0.2-4.4c0-0.4-0.2-0.5-0.5-0.7c-2.7-1.2-5.6-1.6-8.5-1.4c-0.9,0.1-1.8,0.3-2.7,0.5c-0.4,0.1-0.5,0.3-0.2,0.6
		c0.4,0.4,0.7,0.8,1.1,1.3c3.2,4,6.6,8,9.8,12.1C31.6,23.4,31.7,23.6,32,23.6z M31.7,29.2c0-0.1,0-0.2,0-0.3c0-0.2,0.2-0.3,0-0.4
		c-0.2-0.1-0.3,0.1-0.4,0.2c-1,0.6-1.8,1.4-2.7,2.1c-1.3,1-2.5,2.2-3.9,3.3c-1.2,1-2.4,2-3.5,3c-0.3,0.3-0.3,0.4,0,0.7
		c2.2,1.9,4.2,3.9,6.8,5.3c0.8,0.4,1.6,0.9,2.4,1.4c0.3,0.2,0.5,0.1,0.5-0.2c0-0.2,0.1-0.5,0.1-0.7c0-1.4,0-2.8,0.2-4.2
		c0.2-1.7,0.1-3.3,0.2-5C31.5,32.6,31.5,30.9,31.7,29.2z M14.4,24.7c-0.3,0-0.5,0-0.3,0.4c0.3,0.9,0.6,1.9,0.9,2.8
		c1,2.7,2.5,5.1,4.2,7.4c0.4,0.5,0.6,0.4,0.9,0.1c0.4-0.4,0.9-0.8,1.4-1.1c2.1-1.7,4.1-3.4,6.2-5c0.7-0.6,1.4-1.1,2.1-1.7
		c0.1-0.1,0.2-0.2,0.2-0.3C29.8,27,29.7,27,29.5,27c-0.3,0.1-0.6-0.1-0.9-0.1c-2.3-0.3-4.5-0.7-6.8-1.1
		C19.4,25.4,16.9,25.1,14.4,24.7z M48.4,27.7c0-0.1-0.1-0.2-0.1-0.3c-1-2.6-2.3-5.1-4-7.3c-1.1-1.4-0.7-1.6-2.3-0.3
		c-2.2,1.9-4.4,3.8-6.7,5.6c-0.1,0.1-0.4,0.2-0.4,0.4c0,0.3,0.3,0.2,0.5,0.2c1.8,0.2,3.6,0.5,5.4,0.8c2.4,0.4,4.9,0.7,7.3,1.2
		C48.2,27.9,48.4,27.9,48.4,27.7z M33.9,23.2c0,0.2-0.1,0.5,0.1,0.6c0.3,0.1,0.4-0.2,0.6-0.3c2.2-1.9,4.5-3.8,6.7-5.6
		c0.7-0.6,0.7-0.6,0-1.3c-1.9-1.9-3.9-3.5-6.2-4.8c-0.5-0.3-0.6-0.2-0.7,0.3c-0.2,1-0.1,2-0.2,3C34.2,17.7,34.1,20.4,33.9,23.2z"/>
	<path class="st2" d="M184.7,31.5c-0.8,0.1-1.7-0.1-2.7,0.1c-0.6,0.1-0.8-0.1-0.6-0.6c1-2.8,2-5.6,3-8.4c0-0.1,0.1-0.2,0.2-0.2
		c0.1,0,0.1,0.1,0.2,0.2c0.1,0.3,0.2,0.6,0.3,0.9c0.8,2.4,1.6,4.7,2.4,7.1c0.3,0.8,0.3,0.8-0.6,0.8
		C186.3,31.5,185.6,31.5,184.7,31.5z"/>
	<path class="st0" d="M30.1,25.1C29.1,25,28,24.8,27,24.6c-3-0.5-5.9-0.9-8.9-1.4c-1.3-0.2-2.6-0.4-3.9-0.6
		c-0.4-0.1-0.6-0.3-0.6-0.6c-0.1-3.3,0.4-6.4,2.3-9.2c0.6-0.9,1.4-1.6,2.3-2.3c0.1-0.1,0.3-0.2,0.5,0c3.1,3.8,6.2,7.5,9.2,11.3
		c0.8,0.9,1.5,1.9,2.4,2.8c0.1,0.1,0.2,0.2,0.1,0.3C30.3,25.2,30.2,25.1,30.1,25.1z"/>
	<path class="st0" d="M37.8,46c-1.5,0.1-3-0.4-4.6-0.6c-0.4-0.1-0.5-0.3-0.4-0.6c0.2-1.6,0.2-3.1,0.3-4.7c0.1-1.9,0.2-3.7,0.3-5.6
		c0.1-1.5,0.2-3.1,0.2-4.6c0-0.2,0-0.6,0.2-0.7c0.2-0.1,0.3,0.3,0.5,0.4c2.3,2.8,4.6,5.6,6.9,8.4c1.4,1.7,2.8,3.4,4.2,5.1
		c0.2,0.3,0.3,0.6-0.1,0.7c-0.7,0.3-1.2,0.8-1.9,1.1C41.6,45.7,39.8,46.1,37.8,46z"/>
	<path class="st0" d="M49.5,34.1c0,2.7-0.6,5-1.9,7.2c-0.5,0.9-0.7,0.9-1.3,0.1c-1.7-2.2-3.5-4.3-5.3-6.4c-1.6-1.9-3.1-3.8-4.7-5.8
		c-0.2-0.3-0.5-0.5-0.7-0.8c-0.1-0.1-0.2-0.2-0.1-0.4c0.1-0.1,0.2-0.1,0.4,0c1.9,0.4,3.9,0.6,5.8,0.9c2.1,0.3,4.1,0.6,6.2,0.9
		c0.9,0.1,1.2,0.3,1.2,1.2C49.3,32,49.6,33.1,49.5,34.1z"/>
	<path class="st0" d="M32,23.6c-0.3,0-0.3-0.2-0.5-0.3c-3.2-4.1-6.5-8-9.8-12.1c-0.4-0.4-0.7-0.9-1.1-1.3c-0.3-0.3-0.2-0.5,0.2-0.6
		c0.9-0.3,1.8-0.5,2.7-0.5c3-0.2,5.8,0.3,8.5,1.4c0.3,0.1,0.5,0.3,0.5,0.7c0,1.5-0.1,2.9-0.2,4.4c-0.1,1-0.1,1.9-0.1,2.9
		c0,1.7-0.2,3.4-0.2,5.2C32,23.4,32,23.5,32,23.6z"/>
	<path class="st0" d="M31.7,29.2c-0.1,1.7-0.2,3.4-0.3,5.2c-0.1,1.7,0,3.3-0.2,5C31,40.7,31,42.1,31,43.5c0,0.2-0.1,0.5-0.1,0.7
		c-0.1,0.4-0.2,0.4-0.5,0.2c-0.8-0.5-1.6-1-2.4-1.4c-2.6-1.4-4.6-3.5-6.8-5.3c-0.3-0.2-0.3-0.4,0-0.7c1.2-1,2.3-2.1,3.5-3
		c1.3-1.1,2.5-2.3,3.9-3.3c0.9-0.7,1.7-1.5,2.7-2.1c0.1-0.1,0.2-0.3,0.4-0.2c0.2,0.1-0.1,0.3,0,0.4C31.7,29,31.7,29.1,31.7,29.2z"/>
	<path class="st0" d="M14.4,24.7c2.5,0.4,5,0.8,7.4,1.1c2.3,0.4,4.5,0.7,6.8,1.1c0.3,0,0.6,0.2,0.9,0.1c0.1,0,0.3-0.1,0.3,0.1
		c0,0.1-0.1,0.2-0.2,0.3c-0.7,0.6-1.4,1.1-2.1,1.7c-2.1,1.7-4.1,3.4-6.2,5c-0.5,0.4-1,0.7-1.4,1.1c-0.3,0.3-0.6,0.4-0.9-0.1
		c-1.7-2.3-3.2-4.7-4.2-7.4c-0.3-0.9-0.6-1.9-0.9-2.8C14,24.7,14.1,24.6,14.4,24.7z"/>
	<path class="st0" d="M48.4,27.7c0,0.3-0.2,0.2-0.3,0.2c-2.4-0.5-4.9-0.8-7.3-1.2c-1.8-0.3-3.6-0.6-5.4-0.8c-0.2,0-0.5,0.1-0.5-0.2
		c0-0.2,0.2-0.3,0.4-0.4c2.3-1.8,4.5-3.7,6.7-5.6c1.6-1.3,1.2-1.1,2.3,0.3c1.7,2.2,3,4.7,4,7.3C48.3,27.5,48.4,27.6,48.4,27.7z"/>
	<path class="st0" d="M33.9,23.2c0.2-2.7,0.2-5.4,0.4-8.1c0.1-1,0-2,0.2-3c0.1-0.5,0.2-0.6,0.7-0.3c2.2,1.4,4.3,3,6.2,4.8
		c0.7,0.7,0.7,0.7,0,1.3c-2.2,1.8-4.5,3.7-6.7,5.6c-0.2,0.2-0.3,0.5-0.6,0.3C33.8,23.7,34,23.4,33.9,23.2z"/>
</g>
</svg>
