<?xml version="1.0" encoding="utf-8"?>
<!-- Generator: Adobe Illustrator 27.5.0, SVG Export Plug-In . SVG Version: 6.00 Build 0)  -->
<svg version="1.1" id="Layer_1" xmlns="http://www.w3.org/2000/svg" xmlns:xlink="http://www.w3.org/1999/xlink" x="0px" y="0px"
	 width="53px" height="51px" viewBox="0 0 53 51" style="enable-background:new 0 0 53 51;" xml:space="preserve">
<style type="text/css">
	.st0{fill:#E5004F;}
	.st1{fill:#ECEBEC;}
</style>
<g>
	<path class="st0" d="M26.7,49.2c-1.8,0-3.1,0.1-4.4-0.3c-1.2-0.3-2.4-0.6-3.6-1.1c-1.7-0.6-3.3-1.4-4.8-2.4
		c-1.4-0.9-2.7-1.9-4.4-2.4c-1.3-0.3-2.6-0.6-4-0.8c-0.4-0.1-0.5-0.1-0.4-0.5c0.3-1.3,0.3-2.7,0-4C5,37,5,36.2,4.8,35.3
		c-0.2-1.1-0.7-2.1-1-3.2C3.3,29.9,3,27.7,3,25.5c0-1.8,0.2-3.6,0.7-5.3c0.6-2.5,1.7-4.9,3-7.1c0.5-0.8,0.7-1.8,1.1-2.7
		C8.4,9.1,9.1,7.9,10,6.8c1.1-1.3,2.4-2.4,3.9-3.2C15.4,2.8,17,2.3,18.7,2c2.5-0.4,4.9-0.1,7.3,0.3c0.7,0.1,1.4,0.5,2.1,0.5
		c0.3,0,0.6,0.4,1,0.5c0.9,0.3,2,0.6,2.8,1.1c1.4,0.9,2.8,1.6,4.2,2.6c5.4,3.9,9.5,8.9,12,15.1c1.4,3.5,2.2,7.2,1.8,11
		c-0.3,3.3-1.5,6.2-3.7,8.8c-1.9,2.2-4.3,3.4-7,4.1c-1,0.3-2,0.8-2.9,1.2c-1.3,0.6-2.7,1.1-4.1,1.5C30.2,49,28.3,49.4,26.7,49.2z
		 M35.4,44.7c0.4,0,0.8,0,1.2,0c0.4,0,0.8-0.1,1.2-0.1c4.1-0.6,7.1-2.8,8.9-6.5c1.3-2.7,1.7-5.6,1.5-8.6c-0.2-2-0.6-4-1.3-5.9
		c-1.2-3.4-3-6.5-5.3-9.2c-2.9-3.5-6-6-9.9-8.1c-1.9-1-3.9-1.8-6-2.3c-2.3-0.5-4.6-0.8-7.1-0.5c-3.5,0.5-6.3,1.9-8.3,4.9
		c-1.5,2.2-2.2,4.6-2.4,7.2c-0.1,1.8,0,3.7,0.4,5.5c1.2,5.7,4,10.5,8,14.6c2,2,4.2,3.8,6.7,5.2C27.1,43.3,31,44.7,35.4,44.7z"/>
	<path class="st1" d="M35.4,44.7c-4.4-0.1-8.3-1.4-12.1-3.6c-2.5-1.4-4.7-3.2-6.7-5.2c-4-4.1-6.8-9-8-14.6c-0.4-1.8-0.6-3.7-0.4-5.5
		c0.2-2.6,0.9-5,2.4-7.2c2-3,4.8-4.4,8.3-4.9C21.3,3.2,23.6,3.5,26,4c2.1,0.5,4.1,1.3,6,2.3c3.9,2,7,4.6,9.9,8.1
		c2.3,2.8,4.1,5.8,5.3,9.2c0.7,1.9,1.1,3.9,1.3,5.9c0.3,3-0.1,5.9-1.5,8.6c-1.8,3.7-4.9,5.9-8.9,6.5c-0.4,0.1-0.8,0.1-1.2,0.1
		C36.2,44.7,35.8,44.7,35.4,44.7z M27.1,21.8c0.1,0,0.2,0.1,0.3-0.1c0.1-0.1,0-0.2-0.1-0.3c-0.9-0.9-1.6-1.9-2.4-2.8
		c-3.1-3.8-6.2-7.5-9.2-11.3c-0.2-0.3-0.4-0.1-0.5,0c-0.9,0.7-1.7,1.4-2.3,2.3c-2,2.8-2.5,5.9-2.3,9.2c0,0.4,0.2,0.6,0.6,0.6
		c1.3,0.2,2.6,0.4,3.9,0.6c3,0.5,5.9,0.9,8.9,1.4C25,21.5,26,21.7,27.1,21.8z M34.8,42.7c2,0.1,3.8-0.3,5.5-1
		c0.7-0.3,1.2-0.8,1.9-1.1c0.3-0.1,0.3-0.4,0.1-0.7c-1.4-1.7-2.8-3.4-4.2-5.1c-2.3-2.8-4.6-5.6-6.9-8.4c-0.1-0.2-0.2-0.5-0.5-0.4
		c-0.3,0.1-0.2,0.4-0.2,0.7c0,1.5-0.2,3.1-0.2,4.6c-0.1,1.9-0.2,3.7-0.3,5.6c-0.1,1.6-0.1,3.2-0.3,4.7c0,0.4,0.1,0.6,0.4,0.6
		C31.8,42.3,33.3,42.9,34.8,42.7z M46.5,30.8c0.1-1-0.2-2-0.3-3.1c-0.1-0.9-0.3-1-1.2-1.2c-2.1-0.3-4.2-0.6-6.2-0.9
		c-1.9-0.3-3.9-0.5-5.8-0.9c-0.1,0-0.3,0-0.4,0c-0.1,0.1,0,0.3,0.1,0.4c0.2,0.3,0.5,0.5,0.7,0.8c1.6,1.9,3.1,3.8,4.7,5.8
		c1.8,2.1,3.5,4.3,5.3,6.4c0.6,0.8,0.8,0.8,1.3-0.1C45.9,35.8,46.6,33.4,46.5,30.8z M29,20.3c0-0.1,0.1-0.1,0-0.2
		c-0.1-1.7,0.1-3.4,0.2-5.2c0-1,0.1-1.9,0.1-2.9c0.1-1.5,0.2-2.9,0.2-4.4c0-0.4-0.2-0.5-0.5-0.7c-2.7-1.2-5.6-1.6-8.5-1.4
		c-0.9,0.1-1.8,0.3-2.7,0.5c-0.4,0.1-0.5,0.3-0.2,0.6C18,7,18.4,7.5,18.7,7.9c3.2,4,6.6,8,9.8,12.1C28.6,20.1,28.7,20.3,29,20.3z
		 M28.7,25.9c0-0.1,0-0.2,0-0.3c0-0.2,0.2-0.3,0-0.4c-0.2-0.1-0.3,0.1-0.4,0.2c-1,0.6-1.8,1.4-2.7,2.1c-1.3,1-2.5,2.2-3.9,3.3
		c-1.2,1-2.4,2-3.5,3c-0.3,0.3-0.3,0.4,0,0.7c2.2,1.9,4.2,3.9,6.8,5.3c0.8,0.4,1.6,0.9,2.4,1.4c0.3,0.2,0.5,0.1,0.5-0.2
		c0-0.2,0.1-0.5,0.1-0.7c0-1.4,0-2.8,0.2-4.2c0.2-1.7,0.1-3.3,0.2-5C28.5,29.3,28.5,27.6,28.7,25.9z M11.4,21.4
		c-0.3,0-0.5,0-0.3,0.4c0.3,0.9,0.6,1.9,0.9,2.8c1,2.7,2.5,5.1,4.2,7.4c0.4,0.5,0.6,0.4,0.9,0.1c0.4-0.4,0.9-0.8,1.4-1.1
		c2.1-1.7,4.1-3.4,6.2-5c0.7-0.6,1.4-1.1,2.1-1.7c0.1-0.1,0.2-0.2,0.2-0.3c-0.1-0.2-0.2-0.1-0.3-0.1c-0.3,0.1-0.6-0.1-0.9-0.1
		c-2.3-0.3-4.5-0.7-6.8-1.1C16.4,22.1,13.9,21.8,11.4,21.4z M45.4,24.4c0-0.1-0.1-0.2-0.1-0.3c-1-2.6-2.3-5.1-4-7.3
		c-1.1-1.4-0.7-1.6-2.3-0.3c-2.2,1.9-4.4,3.8-6.7,5.6c-0.1,0.1-0.4,0.2-0.4,0.4c0,0.3,0.3,0.2,0.5,0.2c1.8,0.2,3.6,0.5,5.4,0.8
		c2.4,0.4,4.9,0.7,7.3,1.2C45.2,24.6,45.4,24.6,45.4,24.4z M30.9,19.9c0,0.2-0.1,0.5,0.1,0.6c0.3,0.1,0.4-0.2,0.6-0.3
		c2.2-1.9,4.5-3.8,6.7-5.6c0.7-0.6,0.7-0.6,0-1.3c-1.9-1.9-3.9-3.5-6.2-4.8c-0.5-0.3-0.6-0.2-0.7,0.3c-0.2,1-0.1,2-0.2,3
		C31.2,14.4,31.1,17.1,30.9,19.9z"/>
	<path class="st0" d="M27.1,21.8C26,21.7,25,21.5,24,21.3c-3-0.5-5.9-0.9-8.9-1.4c-1.3-0.2-2.6-0.4-3.9-0.6
		c-0.4-0.1-0.6-0.3-0.6-0.6c-0.1-3.3,0.4-6.4,2.3-9.2c0.6-0.9,1.4-1.6,2.3-2.3c0.1-0.1,0.3-0.2,0.5,0c3.1,3.8,6.2,7.5,9.2,11.3
		c0.8,0.9,1.5,1.9,2.4,2.8c0.1,0.1,0.2,0.2,0.1,0.3C27.3,21.9,27.2,21.8,27.1,21.8z"/>
	<path class="st0" d="M34.8,42.7c-1.5,0.1-3-0.4-4.6-0.6c-0.4-0.1-0.5-0.3-0.4-0.6c0.2-1.6,0.2-3.1,0.3-4.7c0.1-1.9,0.2-3.7,0.3-5.6
		c0.1-1.5,0.2-3.1,0.2-4.6c0-0.2,0-0.6,0.2-0.7c0.2-0.1,0.3,0.3,0.5,0.4c2.3,2.8,4.6,5.6,6.9,8.4c1.4,1.7,2.8,3.4,4.2,5.1
		c0.2,0.3,0.3,0.6-0.1,0.7c-0.7,0.3-1.2,0.8-1.9,1.1C38.6,42.4,36.8,42.8,34.8,42.7z"/>
	<path class="st0" d="M46.5,30.8c0,2.7-0.6,5-1.9,7.2c-0.5,0.9-0.7,0.9-1.3,0.1c-1.7-2.2-3.5-4.3-5.3-6.4c-1.6-1.9-3.1-3.8-4.7-5.8
		c-0.2-0.3-0.5-0.5-0.7-0.8c-0.1-0.1-0.2-0.2-0.1-0.4c0.1-0.1,0.2-0.1,0.4,0c1.9,0.4,3.9,0.6,5.8,0.9c2.1,0.3,4.1,0.6,6.2,0.9
		c0.9,0.1,1.2,0.3,1.2,1.2C46.3,28.7,46.6,29.8,46.5,30.8z"/>
	<path class="st0" d="M29,20.3c-0.3,0-0.3-0.2-0.5-0.3c-3.2-4.1-6.5-8-9.8-12.1C18.4,7.5,18,7,17.7,6.6c-0.3-0.3-0.2-0.5,0.2-0.6
		c0.9-0.3,1.8-0.5,2.7-0.5c3-0.2,5.8,0.3,8.5,1.4c0.3,0.1,0.5,0.3,0.5,0.7c0,1.5-0.1,2.9-0.2,4.4c-0.1,1-0.1,1.9-0.1,2.9
		c0,1.7-0.2,3.4-0.2,5.2C29,20.1,29,20.2,29,20.3z"/>
	<path class="st0" d="M28.7,25.9c-0.1,1.7-0.2,3.4-0.3,5.2c-0.1,1.7,0,3.3-0.2,5C28,37.4,28,38.8,28,40.2c0,0.2-0.1,0.5-0.1,0.7
		c-0.1,0.4-0.2,0.4-0.5,0.2c-0.8-0.5-1.6-1-2.4-1.4c-2.6-1.4-4.6-3.5-6.8-5.3c-0.3-0.2-0.3-0.4,0-0.7c1.2-1,2.3-2.1,3.5-3
		c1.3-1.1,2.5-2.3,3.9-3.3c0.9-0.7,1.7-1.5,2.7-2.1c0.1-0.1,0.2-0.3,0.4-0.2c0.2,0.1-0.1,0.3,0,0.4C28.7,25.7,28.7,25.8,28.7,25.9z"
		/>
	<path class="st0" d="M11.4,21.4c2.5,0.4,5,0.8,7.4,1.1c2.3,0.4,4.5,0.7,6.8,1.1c0.3,0,0.6,0.2,0.9,0.1c0.1,0,0.3-0.1,0.3,0.1
		c0,0.1-0.1,0.2-0.2,0.3c-0.7,0.6-1.4,1.1-2.1,1.7c-2.1,1.7-4.1,3.4-6.2,5c-0.5,0.4-1,0.7-1.4,1.1c-0.3,0.3-0.6,0.4-0.9-0.1
		c-1.7-2.3-3.2-4.7-4.2-7.4c-0.3-0.9-0.6-1.9-0.9-2.8C11,21.4,11.1,21.3,11.4,21.4z"/>
	<path class="st0" d="M45.4,24.4c0,0.3-0.2,0.2-0.3,0.2c-2.4-0.5-4.9-0.8-7.3-1.2c-1.8-0.3-3.6-0.6-5.4-0.8c-0.2,0-0.5,0.1-0.5-0.2
		c0-0.2,0.2-0.3,0.4-0.4c2.3-1.8,4.5-3.7,6.7-5.6c1.6-1.3,1.2-1.1,2.3,0.3c1.7,2.2,3,4.7,4,7.3C45.3,24.2,45.4,24.3,45.4,24.4z"/>
	<path class="st0" d="M30.9,19.9c0.2-2.7,0.2-5.4,0.4-8.1c0.1-1,0-2,0.2-3c0.1-0.5,0.2-0.6,0.7-0.3c2.2,1.4,4.3,3,6.2,4.8
		c0.7,0.7,0.7,0.7,0,1.3c-2.2,1.8-4.5,3.7-6.7,5.6c-0.2,0.2-0.3,0.5-0.6,0.3C30.8,20.4,31,20.1,30.9,19.9z"/>
</g>
</svg>
