<?xml version="1.0" encoding="utf-8"?>
<!-- Generator: Adobe Illustrator 27.5.0, SVG Export Plug-In . SVG Version: 6.00 Build 0)  -->
<svg version="1.1" id="Layer_1" xmlns="http://www.w3.org/2000/svg" xmlns:xlink="http://www.w3.org/1999/xlink" x="0px" y="0px"
	 width="16px" height="16px" viewBox="0 0 16 16" style="enable-background:new 0 0 16 16;" xml:space="preserve">
<style type="text/css">
	.st0{fill:#D31E52;}
</style>
<g>
	<path class="st0" d="M0.6,3C0.6,3,0.6,3,0.6,3C0.6,3,0.6,3,0.6,3c0-0.1,0-0.1,0.1-0.2c0,0,0,0,0,0c0,0,0,0,0-0.1c0,0,0,0,0,0
		c0,0,0-0.1,0-0.1c0,0,0,0,0,0C0.8,2.5,0.9,2.3,1,2.1C1.1,2,1.2,2,1.2,1.9c0,0,0,0,0,0c0,0,0-0.1,0.1-0.1c0,0,0,0,0,0
		c0.1-0.1,0.1-0.1,0.2-0.2c0.1-0.1,0.1-0.1,0.2-0.2c0,0,0,0,0,0c0,0,0,0,0.1-0.1c0,0,0,0,0,0C2,1.1,2.1,1.1,2.3,1c0,0,0,0,0,0
		c0,0,0,0,0.1,0c0,0,0,0,0,0c0,0,0,0,0,0c0,0,0,0,0,0c0.1,0,0.2-0.1,0.3-0.1c0,0,0,0,0,0c0.2-0.1,0.4-0.2,0.6-0.2
		c0.1,0,0.2,0,0.3-0.1c0,0,0.1,0,0.1,0c0,0,0,0,0,0c0,0,0.1,0,0.1,0c0,0,0,0,0,0c0.2,0,0.3,0,0.5-0.1c0.2,0,0.4,0,0.6,0
		c1.2-0.1,2.4,0,3.7,0c0.7,0,1.4,0,2.1,0c0.2,0,0.5,0,0.7,0c0.2,0,0.4,0,0.6,0.1c0.1,0,0.1,0,0.2,0c0,0,0,0,0,0c0.1,0,0.2,0,0.3,0.1
		c0,0,0.1,0,0.1,0c0.3,0.1,0.5,0.2,0.8,0.3c0.2,0.1,0.4,0.2,0.6,0.3c0.1,0.1,0.2,0.1,0.3,0.2c0.1,0.1,0.2,0.2,0.3,0.3
		c0.1,0.1,0.2,0.2,0.2,0.3C14.9,2,15,2.1,15,2.3c0.2,0.3,0.3,0.6,0.4,1c0,0,0,0,0,0.1c0,0,0,0,0,0c0,0.1,0.1,0.2,0.1,0.4
		c0,0.1,0.1,0.3,0.1,0.4c0,0.2,0,0.3,0.1,0.5c0,0.1,0,0.2,0,0.2c0,0.2,0,0.4,0,0.6c0,1,0,1.9,0,2.9c0,0.7,0,1.4,0,2.1
		c0,0.3,0,0.5,0,0.8c0,0.1,0,0.2,0,0.2c0,0,0,0,0,0.1c0,0.2,0,0.3-0.1,0.5c0,0.2-0.1,0.4-0.1,0.6c0,0.1-0.1,0.3-0.1,0.4
		c-0.1,0.2-0.2,0.4-0.3,0.6c-0.1,0.2-0.3,0.4-0.4,0.6c-0.2,0.2-0.3,0.3-0.5,0.5c-0.2,0.2-0.4,0.3-0.7,0.4c-0.3,0.1-0.5,0.2-0.8,0.3
		c-0.2,0.1-0.3,0.1-0.5,0.1c0,0,0,0,0,0c-0.2,0-0.4,0.1-0.6,0.1c-0.1,0-0.1,0-0.2,0c-0.2,0-0.5,0-0.7,0c-0.1,0-0.3,0-0.4,0
		c-0.2,0-0.3,0-0.5,0c-1.4,0-2.8,0-4.2,0c-0.2,0-0.5,0-0.7,0c-0.2,0-0.5,0-0.7-0.1c-0.4,0-0.7-0.1-1.1-0.2c-0.4-0.1-0.9-0.3-1.2-0.6
		c-0.6-0.4-1-1-1.3-1.6c-0.1-0.3-0.2-0.5-0.3-0.8c0-0.2-0.1-0.4-0.1-0.6c0-0.1,0-0.1,0-0.2c0,0,0-0.1,0-0.1c0-0.2,0-0.5,0-0.7
		c0-0.1,0-0.2,0-0.4c0-1.5,0-3.1,0-4.6c0-0.1,0-0.3,0-0.4c0-0.2,0-0.4,0-0.5c0-0.2,0-0.3,0-0.5c0-0.1,0-0.2,0-0.3c0,0,0,0,0,0
		c0-0.1,0-0.1,0-0.2c0,0,0,0,0,0c0,0,0,0,0-0.1c0,0,0,0,0,0c0-0.1,0-0.2,0.1-0.3C0.5,3.3,0.5,3.2,0.6,3C0.6,3,0.6,3,0.6,3z M12,14.2
		C12,14.3,12,14.2,12,14.2c0.1,0,0.2,0,0.3-0.1c0.2-0.1,0.5-0.2,0.7-0.3c0,0,0,0,0,0c0,0,0,0,0,0c0,0,0,0,0,0c0,0,0,0,0.1,0
		c0.1-0.1,0.1-0.1,0.2-0.2c0,0,0,0,0,0c0.1-0.1,0.2-0.2,0.3-0.3c0,0,0,0,0,0c0,0,0,0,0-0.1c0.2-0.2,0.3-0.5,0.4-0.7
		c0.1-0.2,0.1-0.4,0.2-0.6c0-0.2,0.1-0.5,0.1-0.7c0-0.2,0-0.5,0-0.7c0-0.3,0-0.5,0-0.8c0-0.2,0-0.4,0-0.6c0-1.1,0-2.2,0-3.3
		c0-0.3,0-0.5,0-0.8c0-0.2,0-0.4,0-0.5c0-0.2,0-0.4-0.1-0.5c0-0.2-0.1-0.4-0.2-0.5c-0.1-0.4-0.4-0.7-0.7-1C13.1,2.2,12.9,2,12.6,2
		c-0.2-0.1-0.4-0.2-0.7-0.2c-0.2,0-0.4-0.1-0.7-0.1c-0.2,0-0.5,0-0.7,0c-0.2,0-0.3,0-0.5,0c-1.4,0-2.9,0-4.3,0c-0.3,0-0.6,0-0.9,0
		c-0.3,0-0.5,0-0.8,0.1c-0.4,0.1-0.7,0.2-1,0.4C2.8,2.2,2.6,2.4,2.4,2.6C2.3,2.7,2.2,2.8,2.2,3C2.1,3.1,2,3.2,2,3.3
		c0,0.1-0.1,0.1-0.1,0.2C1.8,3.7,1.8,3.9,1.8,4.1C1.7,4.3,1.7,4.6,1.7,4.8c0,0.3,0,0.5,0,0.8c0,0.1,0,0.2,0,0.4c0,1.6,0,3.1,0,4.7
		c0,0.2,0,0.4,0,0.7c0,0.2,0,0.4,0.1,0.5c0,0.3,0.1,0.6,0.3,0.9c0.2,0.3,0.4,0.6,0.7,0.9c0,0,0,0,0,0c0,0,0.1,0.1,0.1,0.1
		C3,13.9,3.3,14,3.5,14.1c0.2,0.1,0.3,0.1,0.5,0.1c0,0,0,0,0,0c0.1,0,0.3,0,0.4,0.1c0.2,0,0.5,0,0.7,0.1c0.2,0,0.5,0,0.7,0
		c0.7,0,1.3,0,2,0c0.9,0,1.9,0,2.8,0c0.2,0,0.4,0,0.6,0c0,0,0,0,0,0c0.1,0,0.3,0,0.4-0.1C11.8,14.3,11.9,14.3,12,14.2z"/>
	<path class="st0" d="M0.4,3.8C0.4,3.8,0.4,3.8,0.4,3.8C0.4,3.8,0.4,3.8,0.4,3.8C0.4,3.8,0.4,3.8,0.4,3.8z"/>
	<path class="st0" d="M1.9,1.2C1.9,1.2,1.9,1.3,1.9,1.2C1.8,1.2,1.8,1.2,1.9,1.2z"/>
	<path class="st0" d="M1.3,1.8C1.3,1.9,1.2,1.9,1.3,1.8C1.2,1.8,1.2,1.8,1.3,1.8z"/>
	<path class="st0" d="M3.8,0.4C3.8,0.4,3.8,0.4,3.8,0.4C3.8,0.4,3.8,0.4,3.8,0.4z"/>
	<path class="st0" d="M1.8,1.3C1.8,1.3,1.8,1.3,1.8,1.3C1.7,1.3,1.7,1.3,1.8,1.3z"/>
	<path class="st0" d="M1.3,1.7C1.3,1.8,1.3,1.8,1.3,1.7C1.3,1.7,1.3,1.7,1.3,1.7z"/>
	<path class="st0" d="M0.8,2.6C0.8,2.6,0.8,2.7,0.8,2.6C0.7,2.6,0.7,2.6,0.8,2.6z"/>
	<path class="st0" d="M0.3,4.1C0.4,4.1,0.3,4.1,0.3,4.1C0.3,4.1,0.3,4.1,0.3,4.1z"/>
	<path class="st0" d="M3.7,0.4C3.7,0.4,3.7,0.4,3.7,0.4C3.7,0.4,3.7,0.4,3.7,0.4z"/>
	<path class="st0" d="M2.7,0.7C2.7,0.8,2.6,0.8,2.7,0.7C2.6,0.7,2.6,0.7,2.7,0.7z"/>
	<path class="st0" d="M0.6,3C0.6,3,0.6,3,0.6,3C0.6,3,0.6,3,0.6,3z"/>
	<path class="st0" d="M0.4,3.9C0.4,3.9,0.3,3.9,0.4,3.9C0.3,3.9,0.3,3.9,0.4,3.9z"/>
	<path class="st0" d="M15.5,3.3C15.5,3.3,15.5,3.3,15.5,3.3C15.5,3.3,15.5,3.3,15.5,3.3C15.5,3.3,15.5,3.3,15.5,3.3z"/>
	<path class="st0" d="M12.2,0.4C12.2,0.4,12.2,0.4,12.2,0.4C12.2,0.4,12.2,0.4,12.2,0.4z"/>
	<path class="st0" d="M0.6,3C0.6,3,0.6,3,0.6,3C0.6,3,0.6,3,0.6,3z"/>
	<path class="st0" d="M0.7,2.8C0.7,2.8,0.7,2.8,0.7,2.8C0.7,2.8,0.7,2.8,0.7,2.8z"/>
	<path class="st0" d="M0.7,2.8C0.7,2.8,0.7,2.8,0.7,2.8C0.7,2.8,0.7,2.8,0.7,2.8z"/>
	<path class="st0" d="M2.3,1C2.3,1,2.3,1,2.3,1C2.3,1,2.3,0.9,2.3,1z"/>
	<path class="st0" d="M2.3,0.9C2.3,0.9,2.3,0.9,2.3,0.9C2.3,0.9,2.3,0.9,2.3,0.9z"/>
	<path class="st0" d="M2.4,0.9C2.4,0.9,2.4,0.9,2.4,0.9C2.4,0.9,2.4,0.9,2.4,0.9z"/>
	<path class="st0" d="M12.2,15.6C12.2,15.6,12.2,15.6,12.2,15.6C12.2,15.6,12.2,15.6,12.2,15.6z"/>
	<path class="st0" d="M12,14.2C12,14.2,12,14.2,12,14.2C12,14.2,12,14.3,12,14.2z"/>
	<path class="st0" d="M13.3,13.6C13.3,13.6,13.3,13.6,13.3,13.6C13.3,13.6,13.3,13.6,13.3,13.6z"/>
	<path class="st0" d="M2.7,13.6C2.7,13.6,2.7,13.6,2.7,13.6C2.7,13.6,2.7,13.6,2.7,13.6C2.7,13.6,2.7,13.6,2.7,13.6z"/>
	<path class="st0" d="M13.6,13.3C13.6,13.3,13.6,13.3,13.6,13.3C13.6,13.3,13.6,13.3,13.6,13.3z"/>
	<path class="st0" d="M13,13.9C13,13.8,13,13.8,13,13.9C13,13.8,13,13.9,13,13.9z"/>
	<path class="st0" d="M13,13.9C13,13.9,13,13.9,13,13.9C13,13.9,13,13.9,13,13.9z"/>
	<path class="st0" d="M4,14.2C4,14.2,4,14.2,4,14.2C4,14.2,4,14.2,4,14.2z"/>
	<path class="st0" d="M4.5,10C4.5,9.9,4.4,9.7,4.3,9.6c0,0,0,0,0,0c0,0,0,0,0-0.1c0,0,0,0,0,0c0,0,0,0,0-0.1c0,0,0,0,0,0
		C4.2,9.2,4.1,9,4.1,8.7c0-0.1,0-0.3-0.1-0.4C4,8.2,4,8,4,7.8c0-0.1,0-0.3,0-0.4c0-0.1,0.1-0.2,0.1-0.4c0,0,0-0.1,0-0.1
		c0.1-0.3,0.2-0.5,0.3-0.8C4.7,5.8,4.8,5.6,5,5.3c0.2-0.3,0.5-0.5,0.8-0.7c0.3-0.2,0.7-0.4,1.1-0.5C7.1,4.1,7.3,4.1,7.5,4
		c0.2,0,0.4,0,0.6,0c0.2,0,0.4,0,0.5,0.1c0.2,0,0.5,0.1,0.7,0.2c0.3,0.1,0.5,0.2,0.8,0.4c0.2,0.1,0.3,0.2,0.5,0.4
		c0.3,0.2,0.5,0.5,0.7,0.8c0.2,0.3,0.3,0.6,0.4,0.9c0.1,0.2,0.1,0.5,0.2,0.7C12,7.7,12,8,12,8.3c0,0.2,0,0.4-0.1,0.6c0,0,0,0,0,0.1
		c0,0,0,0,0,0c0,0.1-0.1,0.2-0.1,0.3c-0.1,0.2-0.1,0.3-0.2,0.5c-0.1,0.1-0.1,0.3-0.2,0.4c-0.1,0.2-0.3,0.4-0.5,0.6
		c-0.2,0.2-0.4,0.4-0.7,0.6c-0.1,0.1-0.3,0.2-0.4,0.3c-0.2,0.1-0.4,0.2-0.6,0.3c-0.2,0.1-0.3,0.1-0.5,0.1C8.4,12,8.1,12,7.8,12
		c-0.1,0-0.3,0-0.4,0c-0.1,0-0.2,0-0.3,0c0,0,0,0-0.1,0c-0.1,0-0.3-0.1-0.4-0.1c0,0,0,0,0,0c0,0,0,0-0.1,0c0,0,0,0,0,0
		c0,0,0,0-0.1,0c0,0,0,0,0,0c-0.1-0.1-0.3-0.1-0.4-0.2c0,0,0,0,0,0c0,0,0,0,0,0c0,0,0,0,0,0c0,0,0,0-0.1,0c0,0,0,0,0,0
		c-0.1-0.1-0.3-0.2-0.4-0.3c0,0,0,0,0,0c0,0-0.1-0.1-0.1-0.1c0,0,0,0,0,0c-0.1-0.1-0.3-0.2-0.4-0.4c0,0,0,0,0,0c0,0-0.1-0.1-0.1-0.1
		c0,0,0,0,0,0C4.8,10.3,4.7,10.2,4.5,10C4.6,10,4.5,10,4.5,10z M9.7,10C9.7,10,9.7,9.9,9.7,10c0.1-0.1,0.2-0.2,0.2-0.2c0,0,0,0,0,0
		c0.1-0.1,0.2-0.2,0.3-0.3c0.1-0.1,0.1-0.2,0.1-0.3c0,0,0,0,0,0c0.1-0.1,0.1-0.2,0.1-0.3c0.1-0.1,0.1-0.3,0.1-0.4c0,0,0,0,0,0
		c0-0.1,0-0.2,0-0.2c0-0.2,0-0.3,0-0.5c0-0.2-0.1-0.4-0.2-0.6c0,0,0,0,0,0c0-0.1,0-0.1-0.1-0.1c0,0,0,0,0,0
		c-0.1-0.2-0.2-0.3-0.3-0.5c0,0,0,0,0,0C9.9,6.2,9.8,6.1,9.7,6.1c0,0,0,0,0,0C9.6,5.9,9.4,5.8,9.3,5.7c0,0,0,0,0,0
		c-0.1,0-0.1-0.1-0.1-0.1C8.9,5.6,8.7,5.5,8.4,5.4c-0.3,0-0.5-0.1-0.8,0C7.3,5.5,7,5.6,6.8,5.7C6.2,6,5.8,6.5,5.6,7.1
		C5.4,7.4,5.4,7.8,5.4,8.1c0,0.2,0,0.4,0.1,0.5C5.6,9,5.7,9.2,5.8,9.5C6,9.7,6.2,9.9,6.5,10.1c0.1,0.1,0.3,0.2,0.4,0.2
		c0.2,0.1,0.4,0.2,0.6,0.2c0.1,0,0.2,0,0.4,0c0.2,0,0.3,0,0.5,0c0,0,0,0,0,0c0,0,0,0,0.1,0c0.3-0.1,0.6-0.1,0.9-0.3c0,0,0,0,0,0
		C9.4,10.2,9.6,10.1,9.7,10z"/>
	<path class="st0" d="M12.2,4.8c-0.6,0-1-0.5-1-0.9c0-0.5,0.4-0.9,0.9-0.9c0.5,0,0.9,0.4,0.9,0.9C13.1,4.4,12.6,4.8,12.2,4.8z"/>
	<path class="st0" d="M7,11.9C7.1,11.9,7.1,11.9,7,11.9C7.1,11.9,7.1,11.9,7,11.9z"/>
	<path class="st0" d="M11.9,8.9C11.9,8.9,11.9,8.9,11.9,8.9C11.9,8.9,11.9,8.9,11.9,8.9z"/>
	<path class="st0" d="M6.4,11.7C6.4,11.7,6.4,11.7,6.4,11.7C6.4,11.7,6.4,11.7,6.4,11.7z"/>
	<path class="st0" d="M4.3,9.5C4.3,9.5,4.3,9.5,4.3,9.5C4.3,9.5,4.3,9.5,4.3,9.5z"/>
	<path class="st0" d="M4.3,9.5C4.3,9.6,4.3,9.6,4.3,9.5C4.3,9.6,4.3,9.6,4.3,9.5z"/>
	<path class="st0" d="M4.5,10C4.5,10,4.6,10,4.5,10C4.5,10,4.5,10,4.5,10z"/>
	<path class="st0" d="M4.9,10.5C4.9,10.5,4.9,10.5,4.9,10.5C4.9,10.5,4.9,10.5,4.9,10.5z"/>
	<path class="st0" d="M5,10.6C5,10.6,5,10.6,5,10.6C5,10.6,5,10.6,5,10.6z"/>
	<path class="st0" d="M5.4,11C5.4,11,5.4,11,5.4,11C5.4,11,5.4,11,5.4,11z"/>
	<path class="st0" d="M5.5,11.1C5.5,11.1,5.5,11.1,5.5,11.1C5.5,11.1,5.5,11.1,5.5,11.1z"/>
	<path class="st0" d="M5.9,11.4C5.9,11.4,5.9,11.4,5.9,11.4C5.9,11.4,5.9,11.4,5.9,11.4z"/>
	<path class="st0" d="M6,11.4C6,11.4,6,11.4,6,11.4C6,11.5,6,11.5,6,11.4z"/>
	<path class="st0" d="M6,11.5C6,11.5,6,11.5,6,11.5C6,11.5,6,11.5,6,11.5z"/>
	<path class="st0" d="M4.3,9.4C4.3,9.4,4.3,9.4,4.3,9.4C4.3,9.4,4.3,9.4,4.3,9.4z"/>
	<path class="st0" d="M6.5,11.7C6.5,11.7,6.5,11.7,6.5,11.7C6.5,11.7,6.5,11.7,6.5,11.7z"/>
	<path class="st0" d="M6.6,11.7C6.6,11.7,6.6,11.7,6.6,11.7C6.6,11.7,6.6,11.7,6.6,11.7z"/>
	<path class="st0" d="M10.6,8.3C10.6,8.3,10.5,8.3,10.6,8.3C10.6,8.3,10.6,8.3,10.6,8.3C10.6,8.3,10.6,8.3,10.6,8.3z"/>
	<path class="st0" d="M8.3,10.6C8.3,10.6,8.3,10.6,8.3,10.6C8.3,10.6,8.3,10.6,8.3,10.6z"/>
	<path class="st0" d="M10.4,6.9C10.4,6.9,10.4,6.9,10.4,6.9C10.4,6.9,10.4,6.9,10.4,6.9z"/>
	<path class="st0" d="M10,6.3C9.9,6.3,9.9,6.3,10,6.3C9.9,6.3,10,6.3,10,6.3z"/>
	<path class="st0" d="M9.7,6.1C9.7,6.1,9.7,6.1,9.7,6.1C9.7,6,9.7,6.1,9.7,6.1z"/>
	<path class="st0" d="M10.4,9.1C10.4,9.1,10.4,9.1,10.4,9.1C10.4,9.1,10.4,9.1,10.4,9.1z"/>
	<path class="st0" d="M9.3,5.7C9.2,5.7,9.2,5.7,9.3,5.7C9.2,5.7,9.3,5.7,9.3,5.7z"/>
	<path class="st0" d="M9.9,9.7C9.9,9.7,9.9,9.7,9.9,9.7C10,9.7,9.9,9.7,9.9,9.7z"/>
	<path class="st0" d="M9.7,10C9.7,9.9,9.7,9.9,9.7,10C9.7,9.9,9.7,10,9.7,10z"/>
	<path class="st0" d="M9.2,10.3C9.2,10.3,9.2,10.3,9.2,10.3C9.3,10.3,9.2,10.3,9.2,10.3z"/>
	<path class="st0" d="M10.3,6.8C10.3,6.8,10.3,6.8,10.3,6.8C10.3,6.8,10.3,6.8,10.3,6.8z"/>
</g>
</svg>
