<?xml version="1.0" encoding="utf-8"?>
<!-- Generator: Adobe Illustrator 27.5.0, SVG Export Plug-In . SVG Version: 6.00 Build 0)  -->
<svg version="1.1" id="Layer_1" xmlns="http://www.w3.org/2000/svg" xmlns:xlink="http://www.w3.org/1999/xlink" x="0px" y="0px"
	 width="288.9px" height="278.6px" viewBox="0 0 288.9 278.6" style="enable-background:new 0 0 288.9 278.6;" xml:space="preserve"
	>
<style type="text/css">
	.st0{fill:#808080;}
</style>
<path class="st0" d="M200.8,183.1c9.7,9.6,19.2,19.2,28.8,28.7c13.1,13.1,26.3,26.3,39.4,39.4c2.8,2.8,4.3,5.9,3,9.9
	c-1.9,5.8-8.8,8-13.6,4.4c-0.9-0.7-1.7-1.5-2.6-2.4c-21.8-21.8-43.6-43.6-65.4-65.4c-0.7-0.7-1.2-1.6-1.7-2.4
	c-45.4,38.7-113.5,30.5-148.7-13C5.8,140.2,9.3,78.7,47.7,41.2C87,2.9,148.2,1.9,188.4,35.5C231.3,71.4,238.7,138.1,200.8,183.1z
	 M34,115.7c0.4,4.5,0.7,9,1.3,13.4c2.2,16.3,9.7,30.2,20.5,42.3c23.2,26.2,51.9,36.5,86.3,28.3c42.7-10.1,71-52.6,64.9-96
	c-2.4-16.9-9.7-31.3-20.9-44c-20.7-23.3-46.3-34.3-77.6-29.8C65.7,36,34.3,72.5,34,115.7z"/>
</svg>
