<?xml version="1.0" encoding="utf-8"?>
<!-- Generator: Adobe Illustrator 27.5.0, SVG Export Plug-In . SVG Version: 6.00 Build 0)  -->
<svg version="1.1" id="Layer_1" xmlns="http://www.w3.org/2000/svg" xmlns:xlink="http://www.w3.org/1999/xlink" x="0px" y="0px"
	 width="301.9px" height="285.4px" viewBox="0 0 301.9 285.4" style="enable-background:new 0 0 301.9 285.4;" xml:space="preserve"
	>
<style type="text/css">
	.st0{fill:#D31E52;}
	.st1{fill:#F5C64B;}
</style>
<path class="st0" d="M149.1,231.8c-6.2,3.4-12.4,6.7-18.6,10.1c-0.1,0.1-0.3,0.3-0.4,0.4c-6.2,3.4-12.4,6.7-18.6,10.1
	c-0.1,0.1-0.3,0.3-0.4,0.4c-6.2,3.4-12.4,6.7-18.6,10.1c-0.1,0.1-0.3,0.3-0.4,0.4c-3.3,1.3-6.1,3.4-9.2,5c-3.6,1.8-7.1,3.8-11.3,0.1
	c-2.4-2.2-3.2-4.9-2.8-8c0.1-0.2,0.3-0.3,0.4-0.5c0.6-3.8,1.2-7.6,1.7-11.4c0.3-2.2,0.6-4.4,0.9-6.6c0.6-0.1,1.1-0.2,0.5-1
	c0-0.7,0-1.4,0-2c0.6-0.1,1.2-0.2,0.5-1c0.5-3.6,1-7.3,1.7-10.9c0.3-1.2,0.2-2.4,0.3-3.7c0.6-0.1,1.1-0.2,0.5-1
	c1.2-7.2,2.3-14.4,3.5-21.5c0.1-0.6,0-1.3,0-2c0.6-0.1,1.1-0.2,0.5-1c0-2.7,1.7-5.3,0.5-8c0.5-0.1,1.6,0.3,1-1
	c0.4-2.7,0.6-5.4,1.3-8c0.5-2.1,0-3.5-1.4-4.9c-3.2-3.2-6.4-6.3-9.6-9.5c-8.4-8.3-16.4-16.9-24.7-25.4c-6.9-7-13.6-14.1-20.5-21.2
	c-2.4-2.4-3.5-5.3-2.5-8.4c1.1-3.3,3.6-5.2,7.2-5.7c14.5-2.1,28.9-4.3,43.4-6.5c10.8-1.6,21.7-3.3,32.5-5c1.5-0.2,2.4-0.9,3.1-2.4
	c6.4-13.7,12.9-27.4,19.2-41.1c3.6-8,7.8-15.7,11-23.9c1.3-0.3,1.3-1.4,1.4-2.4c1.4-3,2.2-6.4,4.9-8.6c0.6,0,1-0.2,1-0.8
	c2.2-0.1,4.3-0.1,6.5-0.2c0.2,0,0.3,0,0.5,0c0.3,0.1,0.7,0.1,1,0.2c0.1,0.6,0.5,0.8,1,0.8c1.8,1.9,2.8,4.2,3.9,6.5
	c7.2,15.2,14.1,30.5,21.4,45.7c3.9,8.3,8,16.6,11.7,25c0.4,1,1,1.4,2.1,1.3c4.3-0.2,8.5,1.5,12.7,1.7c2.6,0.1,5.1,1.7,7.8,0.6
	c1.2-0.5,1.9,1.3,3.4,1.2c3.4-0.4,6.8,0.5,10,1.2c3.1,0.7,6.3,0.4,9.4,1.5c2.3,0.8,4.9,1.1,7.4,0.9c1.2-0.1,2.3,1.1,3.7,0.9
	c2.4-0.4,4.7,1.3,7,1c2.8-0.4,5.5,0.6,8,1.1c4.2,0.8,9,0.1,12.4,3.8c2.4,2.6,3.3,7.7,0.2,10.9c-3.3,3.3-6.6,6.5-9.9,9.9
	c-6,6.2-11.9,12.5-17.9,18.7c-2.7,2.8-5.5,5.6-8.2,8.4c-6.7,6.9-13.4,13.9-20.3,20.7c-1.8,1.8-0.7,3.5-0.5,5
	c0.8,5.9,1.9,11.7,2.9,17.5c1.2,7.2,2.2,14.4,3.6,21.5c0.8,4.2,0.8,8.4,1.9,12.5c0.4,1.6,1,3.2,1.4,4.9c0.3,1.4,1.1,2.9,0.4,4.4
	c-0.6,1.4,0.3,2.7,0.5,3.8c0.7,3.8,0.5,7.8,1.8,11.5c0.9,2.7,0.8,5-0.2,7.5c-1.3,3.5-6.2,6-9.7,4.4c-1-0.5-2.2-0.8-3.2-1.2
	c-0.2-0.1-0.3-0.3-0.5-0.4c-1.1-1.1-2.6-1.5-4-2.1c-0.2-0.1-0.4-0.3-0.5-0.4c-4.2-2.4-8.3-4.7-12.5-7.1c-1.8-1-3.6-2.1-5.5-3.1
	c-0.2-0.1-0.4-0.2-0.6-0.3c-1.3-0.7-2.6-1.4-3.9-2.1c-0.2-0.1-0.4-0.2-0.6-0.3c-4.6-2.6-9.3-5.1-13.9-7.7c-0.2-0.1-0.4-0.2-0.6-0.3
	c-1.3-0.7-2.6-1.4-3.9-2.2c-0.2-0.1-0.4-0.2-0.6-0.3c-4.6-2.6-9.3-5.1-13.9-7.7c-0.2-0.1-0.4-0.2-0.6-0.3c-1.3-0.7-2.6-1.4-3.9-2.2
	c-0.2-0.1-0.4-0.2-0.6-0.3c-1.3-0.3-2.5-2-4.1-0.5C149.3,231.5,149.2,231.6,149.1,231.8z"/>
<path class="st1" d="M137.6,16.6c-0.1,1-0.2,2.1-1.4,2.4C135.8,17.7,136.8,17.2,137.6,16.6z"/>
<path class="st1" d="M77.2,181c0.7,1.3-0.5,0.8-1,1C76.3,181.4,76.7,181.2,77.2,181z"/>
<path class="st1" d="M68.7,233c0.7,0.7,0.1,0.9-0.5,1C68.1,233.6,68.2,233.2,68.7,233z"/>
<path class="st1" d="M143.6,7.2c-0.1,0.6-0.5,0.8-1,0.8C142.6,7.4,143,7.1,143.6,7.2z"/>
<path class="st1" d="M152.6,8c-0.6,0-1-0.2-1-0.8C152.3,7,152.6,7.4,152.6,8z"/>
<path class="st1" d="M75.7,190c0.6,0.7,0.1,0.8-0.5,1C75.1,190.6,75.2,190.2,75.7,190z"/>
<path class="st1" d="M71.7,214.5c0.6,0.7,0.1,0.8-0.5,1C71.1,215.1,71.2,214.7,71.7,214.5z"/>
<path class="st1" d="M69.2,230c0.7,0.7,0.1,0.9-0.5,1C68.6,230.6,68.7,230.2,69.2,230z"/>
<path class="st1" d="M154.5,226.5c0.2,0.1,0.4,0.2,0.6,0.3C154.8,227,154.7,226.8,154.5,226.5z"/>
<path class="st1" d="M150,224c0.2,0.1,0.4,0.2,0.6,0.3C150.3,224.5,150.1,224.3,150,224z"/>
<path class="st1" d="M145.6,223.9c0.1-0.1,0.3-0.3,0.4-0.4C146,223.8,145.9,223.9,145.6,223.9z"/>
<path class="st1" d="M150.6,7.1c-0.2,0-0.3,0-0.5,0C150.3,6.7,150.4,6.6,150.6,7.1z"/>
<path class="st1" d="M126.6,234.4c0.1-0.1,0.3-0.3,0.4-0.4C127,234.3,126.9,234.4,126.6,234.4z"/>
<path class="st1" d="M169,234.5c0.2,0.1,0.4,0.2,0.6,0.3C169.3,234.9,169.1,234.8,169,234.5z"/>
<path class="st1" d="M173.5,237c0.2,0.1,0.4,0.2,0.6,0.3C173.8,237.4,173.6,237.3,173.5,237z"/>
<path class="st1" d="M107.6,244.9c0.1-0.1,0.3-0.3,0.4-0.4C108.1,244.8,107.9,244.9,107.6,244.9z"/>
<path class="st1" d="M188,245c0.2,0.1,0.4,0.2,0.6,0.3C188.3,245.5,188.1,245.3,188,245z"/>
<path class="st1" d="M192.5,247.5c0.2,0.1,0.4,0.2,0.6,0.3C192.8,247.9,192.6,247.7,192.5,247.5z"/>
<path class="st1" d="M65.6,252c-0.1,0.2-0.3,0.3-0.4,0.5C65.2,252.2,65.3,252,65.6,252z"/>
<path class="st1" d="M88.6,255.4c0.1-0.1,0.3-0.3,0.4-0.4C89.1,255.3,88.9,255.4,88.6,255.4z"/>
<path class="st1" d="M211,258c0.2,0.1,0.4,0.3,0.5,0.4C211.4,258.3,211.2,258.1,211,258z"/>
<path class="st1" d="M215.5,260.5c0.2,0.1,0.3,0.3,0.5,0.4C215.9,260.8,215.7,260.6,215.5,260.5z"/>
</svg>
